<?xml version="1.0" encoding="UTF-8" standalone="no"?>
<!-- Created with Inkscape (http://www.inkscape.org/) -->

<svg
   xmlns:dc="http://purl.org/dc/elements/1.1/"
   xmlns:cc="http://creativecommons.org/ns#"
   xmlns:rdf="http://www.w3.org/1999/02/22-rdf-syntax-ns#"
   xmlns:svg="http://www.w3.org/2000/svg"
   xmlns="http://www.w3.org/2000/svg"
   xmlns:sodipodi="http://sodipodi.sourceforge.net/DTD/sodipodi-0.dtd"
   xmlns:inkscape="http://www.inkscape.org/namespaces/inkscape"
   width="210mm"
   height="297mm"
   viewBox="0 0 210 297"
   version="1.1"
   id="svg3827"
   inkscape:version="0.92.4 5da689c313, 2019-01-14"
   sodipodi:docname="mobile.svg">
  <defs
     id="defs3821" />
  <sodipodi:namedview
     id="base"
     pagecolor="#ffffff"
     bordercolor="#666666"
     borderopacity="1.0"
     inkscape:pageopacity="0.0"
     inkscape:pageshadow="2"
     inkscape:zoom="0.35"
     inkscape:cx="400"
     inkscape:cy="560"
     inkscape:document-units="mm"
     inkscape:current-layer="layer1"
     showgrid="false"
     inkscape:window-width="1872"
     inkscape:window-height="1024"
     inkscape:window-x="48"
     inkscape:window-y="28"
     inkscape:window-maximized="1" />
  <metadata
     id="metadata3824">
    <rdf:RDF>
      <cc:Work
         rdf:about="">
        <dc:format>image/svg+xml</dc:format>
        <dc:type
           rdf:resource="http://purl.org/dc/dcmitype/StillImage" />
        <dc:title></dc:title>
      </cc:Work>
    </rdf:RDF>
  </metadata>
  <g
     inkscape:label="Layer 1"
     inkscape:groupmode="layer"
     id="layer1">
    <path
       d="m 42.153892,2.0051219 c -12.008031,0 -21.675293,9.0539501 -21.675293,20.3001841 V 274.60541 c -8e-6,11.24623 9.667262,20.30018 21.675293,20.30018 H 164.97706 c 12.00803,0 21.67529,-9.05395 21.67529,-20.30018 V 22.305306 c 0,-11.246234 -9.66726,-20.3001841 -21.67529,-20.3001841 z M 90.289903,20.926411 h 26.553387 c 0.72852,0 1.31456,0.548865 1.31456,1.231143 v 1.467175 c 0,0.682304 -0.58603,1.231169 -1.31456,1.231169 H 90.289903 c -0.728517,0 -1.314555,-0.548865 -1.314555,-1.231169 v -1.467175 c 0,-0.682278 0.586038,-1.231143 1.314555,-1.231143 z M 35.201086,44.226634 H 171.93286 V 252.6813 H 35.201086 Z M 103.56622,261.47977 c 7.39264,-2e-5 13.38544,5.6127 13.38544,12.53627 3e-5,6.92357 -5.99288,12.53627 -13.38544,12.53627 -7.392555,0 -13.385433,-5.61278 -13.385433,-12.53627 -3.1e-5,-6.92365 5.992878,-12.53627 13.385433,-12.53627 z"
       id="path3783"
       inkscape:connector-curvature="0"
       style="color:#000000;fill:#555555;stroke-width:0.72327709" />
  </g>
</svg>
